<svg id="icon" xmlns="http://www.w3.org/2000/svg" version="1.1" xmlns:xlink="http://www.w3.org/1999/xlink" xmlns:svgjs="http://svgjs.dev/svgjs" width="1500" height="1500" viewBox="0 0 1500 1500"><rect width="1500" height="1500" fill="#000000"></rect><g transform="matrix(0.6666666666666666,0,0,0.6666666666666666,249.39393939393938,610.9234615060134)"><svg viewBox="0 0 396 110" data-background-color="#f6efd1" preserveAspectRatio="xMidYMid meet" height="416" width="1500" xmlns="http://www.w3.org/2000/svg" xmlns:xlink="http://www.w3.org/1999/xlink"><g id="tight-bounds" transform="matrix(1,0,0,1,0.2400000000000091,0.16256935458605426)"><svg viewBox="0 0 395.52 109.67486129082789" height="109.67486129082789" width="395.52"><g><svg viewBox="0 0 587.5275964426578 162.91719165751923" height="109.67486129082789" width="395.52"><g transform="matrix(1,0,0,1,192.0075964426578,50.34377694840835)"><svg viewBox="0 0 395.52 62.22963776070253" height="62.22963776070253" width="395.52"><g id="textblocktransform"><svg viewBox="0 0 395.52 62.22963776070253" height="62.22963776070253" width="395.52" id="textblock"><g><svg viewBox="0 0 395.52 62.22963776070253" height="62.22963776070253" width="395.52"><g transform="matrix(1,0,0,1,0,0)"><svg width="395.52" viewBox="1.35 -40.8 273.28 43" height="62.22963776070253" data-palette-color="#050505"><path d="M10.4-18.6L10.4-18.6 10.4-2.55 14.45-1.8Q14.5-1.55 14.53-1.35 14.55-1.15 14.55-0.9L14.55-0.9Q14.55-0.65 14.53-0.38 14.5-0.1 14.45 0.2L14.45 0.2Q11.3 0.05 8 0.05L8 0.05Q6.85 0.05 5.23 0.08 3.6 0.1 1.5 0.15L1.5 0.15Q1.35-0.3 1.35-0.8L1.35-0.8Q1.35-1.25 1.5-1.8L1.5-1.8 5.45-2.35Q5.55-3.75 5.6-5.33 5.65-6.9 5.65-8.7L5.65-8.7 5.65-19.35Q5.65-22.65 5.5-24.25L5.5-24.25 1.55-24.75Q1.45-25 1.45-25.6L1.45-25.6Q1.45-25.85 1.45-26.1 1.45-26.35 1.55-26.65L1.55-26.65Q4.95-26.85 10.15-27.7L10.15-27.7Q10.6-27.2 10.65-26.7L10.65-26.7Q10.4-25.3 10.4-18.6ZM3.1-36.45L3.1-36.45Q3-36.7 3-36.98 3-37.25 3-37.5L3-37.5Q3-38.85 4.13-39.68 5.25-40.5 6.9-40.5L6.9-40.5Q8.45-40.5 9.43-39.58 10.4-38.65 10.4-37.05L10.4-37.05Q10.4-35.75 9.28-34.95 8.15-34.15 6.4-34.15L6.4-34.15Q5.2-34.15 4.28-34.75 3.35-35.35 3.1-36.45ZM37.8-8.7L37.8-17.85Q37.8-21.7 36.77-23.25 35.75-24.8 33.35-24.8L33.35-24.8Q29.65-24.8 25.9-19.25L25.9-19.25 25.9-2.55 29.95-1.8Q30.15-1 29.95 0.2L29.95 0.2Q26.8 0.05 23.5 0.05L23.5 0.05Q21.2 0.05 17 0.15L17 0.15Q16.7-0.8 17-1.8L17-1.8 20.95-2.35Q21.15-5.1 21.15-8.7L21.15-8.7 21.15-22.4Q21.15-23.4 21-24.25L21-24.25 17.05-24.75Q16.85-25.5 17.05-26.65L17.05-26.65Q20.5-26.9 25.65-27.7L25.65-27.7Q26.1-27.2 26.15-26.7L26.15-26.7Q25.9-25.4 25.9-22.25L25.9-22.25Q29.85-27.7 34.8-27.7L34.8-27.7Q42.55-27.7 42.55-20.35L42.55-20.35 42.55-2.55 46.6-1.8Q46.8-1 46.6 0.2L46.6 0.2Q43.45 0.05 40.15 0.05L40.15 0.05Q37.85 0.05 33.65 0.15L33.65 0.15Q33.35-0.8 33.65-1.8L33.65-1.8 37.6-2.35Q37.8-5.1 37.8-8.7L37.8-8.7ZM69.65-8.7L69.65-17.85Q69.65-21.7 68.62-23.25 67.59-24.8 65.2-24.8L65.2-24.8Q61.5-24.8 57.75-19.25L57.75-19.25 57.75-2.55 61.8-1.8Q62-1 61.8 0.2L61.8 0.2Q58.65 0.05 55.35 0.05L55.35 0.05Q53.05 0.05 48.85 0.15L48.85 0.15Q48.55-0.8 48.85-1.8L48.85-1.8 52.8-2.35Q53-5.1 53-8.7L53-8.7 53-22.4Q53-23.4 52.85-24.25L52.85-24.25 48.9-24.75Q48.7-25.5 48.9-26.65L48.9-26.65Q52.35-26.9 57.5-27.7L57.5-27.7Q57.95-27.2 58-26.7L58-26.7Q57.75-25.4 57.75-22.25L57.75-22.25Q61.7-27.7 66.65-27.7L66.65-27.7Q74.4-27.7 74.4-20.35L74.4-20.35 74.4-2.55 78.45-1.8Q78.65-1 78.45 0.2L78.45 0.2Q75.3 0.05 72 0.05L72 0.05Q69.7 0.05 65.5 0.15L65.5 0.15Q65.2-0.8 65.5-1.8L65.5-1.8 69.45-2.35Q69.65-5.1 69.65-8.7L69.65-8.7ZM81.34-13.3L81.34-13.3Q81.34-16.3 82.22-18.93 83.09-21.55 84.74-23.5 86.39-25.45 88.72-26.58 91.04-27.7 93.94-27.7L93.94-27.7Q96.79-27.7 99.14-26.58 101.49-25.45 103.17-23.5 104.84-21.55 105.74-18.93 106.64-16.3 106.64-13.3L106.64-13.3Q106.64-10.2 105.72-7.6 104.79-5 103.12-3.08 101.44-1.15 99.09-0.08 96.74 1 93.94 1L93.94 1Q90.99 1 88.67-0.05 86.34-1.1 84.72-3 83.09-4.9 82.22-7.53 81.34-10.15 81.34-13.3ZM88.64-22.5L88.64-22.5Q86.49-19.45 86.49-13.3L86.49-13.3Q86.49-10.25 87.07-7.95 87.64-5.65 88.64-4.13 89.64-2.6 90.99-1.85 92.34-1.1 93.94-1.1L93.94-1.1Q95.49-1.1 96.89-1.85 98.29-2.6 99.29-4.13 100.29-5.65 100.89-7.95 101.49-10.25 101.49-13.3L101.49-13.3Q101.49-16.35 100.89-18.68 100.29-21 99.27-22.53 98.24-24.05 96.87-24.83 95.49-25.6 93.94-25.6L93.94-25.6Q90.84-25.6 88.64-22.5ZM132.89-24.3L122.54 2.2 121.49 2.2 111.14-24.25 107.99-24.85Q107.79-25.65 107.99-26.85L107.99-26.85Q110.74-26.65 113.94-26.65L113.94-26.65Q116.79-26.65 119.99-26.8L119.99-26.8Q120.29-25.8 119.99-24.85L119.99-24.85 116.84-24.25 120.89-12.75Q122.64-7.75 123.19-5.5L123.19-5.5 123.29-5.5Q124.49-9.8 125.64-12.5L125.64-12.5 129.94-24.45 126.04-24.85Q125.84-25.65 126.04-26.85L126.04-26.85Q128.79-26.65 131.29-26.65L131.29-26.65Q133.39-26.65 136.64-26.8L136.64-26.8Q136.94-25.8 136.64-24.85L136.64-24.85 132.89-24.3ZM151.39-39.95L151.39-39.95Q153.44-39.95 157.91-40.15 162.39-40.35 166.04-40.35L166.04-40.35Q173.79-40.35 177.09-37.33 180.39-34.3 180.39-28.9L180.39-28.9Q180.39-24.1 176.11-20.85 171.84-17.6 165.94-17.6L165.94-17.6Q162.89-17.6 160.79-17.9L160.79-17.9 160.79-2.2 165.34-1.7Q165.54-0.95 165.34 0.15L165.34 0.15Q162.19 0 158.24 0L158.24 0Q155.29 0 151.09 0.1L151.09 0.1Q150.79-0.8 151.09-1.7L151.09-1.7 155.24-2.3Q155.44-4.2 155.44-8.15L155.44-8.15 155.44-37.6 151.39-38.1Q151.19-38.85 151.39-39.95ZM160.79-31.65L160.79-31.65 160.79-19.95Q162.34-19.75 165.29-19.75L165.29-19.75Q167.89-19.75 169.76-20.63 171.64-21.5 172.59-22.98 173.54-24.45 173.94-25.95 174.34-27.45 174.34-29.15L174.34-29.15Q174.34-33.5 172.14-35.88 169.94-38.25 164.79-38.25L164.79-38.25Q162.94-38.25 161.09-37.9L161.09-37.9Q160.79-35.05 160.79-31.65ZM207.63-26.7L207.63-26.7 207.63-7.1Q207.63-3.75 207.78-2.4L207.78-2.4 211.73-1.9Q211.88-1.1 211.73 0L211.73 0Q208.08 0.15 204.13 0.7L204.13 0.7Q203.78 0.35 203.63-0.25L203.63-0.25 203.38-4.7Q201.28-2 199.06-0.5 196.83 1 193.83 1L193.83 1Q190.78 1 188.71-0.55 186.63-2.1 186.63-5.85L186.63-5.85 186.63-16.95Q186.63-22.65 186.48-24.25L186.48-24.25 182.53-24.75Q182.33-25.5 182.53-26.65L182.53-26.65Q185.98-26.9 191.13-27.7L191.13-27.7Q191.58-27.2 191.63-26.7L191.63-26.7Q191.38-25.4 191.38-8.35L191.38-8.35Q191.38-4.85 192.21-3.38 193.03-1.9 195.28-1.9L195.28-1.9Q199.48-1.9 202.88-6.9L202.88-6.9 202.88-17Q202.88-22.65 202.73-24.25L202.73-24.25 198.78-24.75Q198.58-25.5 198.78-26.65L198.78-26.65Q201.78-26.85 207.13-27.7L207.13-27.7Q207.58-27.2 207.63-26.7ZM222.43-31.7L222.43-31.7 222.43-2.55 226.48-1.8Q226.68-1 226.48 0.2L226.48 0.2Q223.33 0.05 220.03 0.05L220.03 0.05Q217.73 0.05 213.53 0.15L213.53 0.15Q213.23-0.8 213.53-1.8L213.53-1.8 217.48-2.35Q217.68-5.1 217.68-8.7L217.68-8.7 217.68-37.35 213.58-37.85Q213.38-38.6 213.58-39.75L213.58-39.75Q217.03-40 222.18-40.8L222.18-40.8Q222.63-40.3 222.68-39.8L222.68-39.8Q222.43-38.5 222.43-31.7ZM238.63-1.2L238.63-1.2Q241.33-1.2 242.63-2.45 243.93-3.7 243.93-5.35L243.93-5.35Q243.93-6.3 243.63-7.1 243.33-7.9 242.65-8.65 241.98-9.4 240.88-10.13 239.78-10.85 238.13-11.7L238.13-11.7Q236.08-12.75 234.6-13.7 233.13-14.65 232.18-15.7 231.23-16.75 230.75-17.95 230.28-19.15 230.28-20.65L230.28-20.65Q230.28-22.45 230.93-23.78 231.58-25.1 232.75-25.98 233.93-26.85 235.53-27.28 237.13-27.7 239.08-27.7L239.08-27.7Q242.98-27.7 246.68-25.8L246.68-25.8 246.68-19.4 244.33-19.4 243.23-24.8Q241.03-25.85 238.58-25.85L238.58-25.85Q234.48-25.85 234.48-22.5L234.48-22.5Q234.48-20.7 235.83-19.2 237.18-17.7 240.18-16.2L240.18-16.2Q242.23-15.15 243.78-14.2 245.33-13.25 246.35-12.2 247.38-11.15 247.9-9.93 248.43-8.7 248.43-7.15L248.43-7.15Q248.43-5.4 247.68-3.9 246.93-2.4 245.58-1.33 244.23-0.25 242.33 0.38 240.43 1 238.13 1L238.13 1Q233.68 1 229.78-0.9L229.78-0.9 229.78-7.3 232.13-7.3 233.23-2.35Q235.78-1.2 238.63-1.2ZM273.58-14.1L273.58-14.1 257.88-14.1Q257.43-1.35 265.53-1.35L265.53-1.35Q268.98-1.35 272.58-4.4L272.58-4.4Q273.33-3.95 273.73-2.85L273.73-2.85Q270.28 1 264.98 1L264.98 1Q252.78 1 252.78-13.35L252.78-13.35Q252.78-20.15 256.38-23.93 259.98-27.7 264.78-27.7L264.78-27.7Q270.03-27.7 272.33-24.05 274.63-20.4 274.63-14.55L274.63-14.55Q274.13-14.15 273.58-14.1ZM264.68-25.7L264.68-25.7Q262.08-25.7 260.25-23 258.43-20.3 258.03-16.1L258.03-16.1 264.23-16.1Q267.93-16.1 269.53-16.55L269.53-16.55Q269.53-20.65 268.28-23.18 267.03-25.7 264.68-25.7Z" opacity="1" transform="matrix(1,0,0,1,0,0)" fill="#ffffff" class="wordmark-text-0" data-fill-palette-color="primary" id="text-0"></path></svg></g></svg></g></svg></g></svg></g><g><svg viewBox="0 0 177.3166724786622 162.91719165751923" height="162.91719165751923" width="177.3166724786622"><g><svg xmlns="http://www.w3.org/2000/svg" xmlns:xlink="http://www.w3.org/1999/xlink" version="1.1" x="0" y="0" viewBox="7.523 10.972 84.9550010418171 78.05600000000001" enable-background="new 0 0 100 100" xml:space="preserve" height="162.91719165751923" width="177.3166724786622" class="icon-icon-0" data-fill-palette-color="accent" id="icon-0"><path d="M10.972 50.27C10.983 51.046 11.004 51.811 11.058 52.566H11.015C10.66 53.051 10.099 53.331 9.452 53.331 8.396 53.331 7.523 52.47 7.523 51.402S8.396 49.472 9.452 49.472C10.088 49.472 10.627 49.795 10.972 50.27" fill="#ffffff" data-fill-palette-color="accent"></path><path d="M92.478 51.401A1.927 1.927 0 0 1 90.548 53.33 1.9 1.9 0 0 1 88.975 52.521H88.943C88.997 51.756 89.029 50.98 89.029 50.204A1.92 1.92 0 0 1 90.549 49.471 1.93 1.93 0 0 1 92.478 51.401" fill="#ffffff" data-fill-palette-color="accent"></path><path d="M47.068 52.521H88.943C87.648 72.904 70.705 89.028 50 89.028 29.305 89.028 12.373 72.924 11.058 52.565L12.201 52.554H13.99C14.411 52.554 14.799 52.317 14.971 51.929L15.209 51.444 17.267 47.068 19.035 51.444 20.544 55.183C20.716 55.625 21.169 55.895 21.643 55.852 22.128 55.798 22.516 55.442 22.602 54.979L23.249 51.444 26.471 34.069 27.527 51.444 28.939 74.843C28.982 75.361 29.381 75.791 29.898 75.846 29.941 75.846 29.984 75.857 30.017 75.857 30.491 75.857 30.922 75.545 31.052 75.081L37.422 53.287 38.079 54.904C38.241 55.313 38.629 55.583 39.071 55.583 39.502 55.595 39.901 55.336 40.073 54.937L41.572 51.445 43.361 47.284 45.819 51.445 46.142 51.994C46.335 52.328 46.691 52.521 47.068 52.521" fill="#ffffff" data-fill-palette-color="accent"></path><path d="M89.028 50V50.205C88.985 50.259 88.942 50.313 88.909 50.367H47.693L44.136 44.353A1.09 1.09 0 0 0 43.144 43.825C42.734 43.857 42.379 44.105 42.217 44.482L39.221 51.445 39.113 51.704 39.005 51.445 38.261 49.602A1.077 1.077 0 0 0 36.225 49.699L35.718 51.445 30.717 68.54 29.682 51.445 28.087 25.157A1.07 1.07 0 0 0 27.074 24.155 1.067 1.067 0 0 0 25.953 25.028L21.157 50.939 18.344 43.965A1.05 1.05 0 0 0 17.386 43.297C16.954 43.287 16.556 43.524 16.372 43.912L13.311 50.412H12.223L11.069 50.401C11.037 50.358 11.015 50.315 10.972 50.272V50C10.972 28.443 28.444 10.972 50 10.972S89.028 28.443 89.028 50" fill="#ffffff" data-fill-palette-color="accent"></path></svg></g></svg></g></svg></g><defs></defs></svg><rect width="395.52" height="109.67486129082789" fill="none" stroke="none" visibility="hidden"></rect></g></svg></g></svg>